<?xml version="1.0" standalone="no"?>
<!DOCTYPE svg PUBLIC "-//W3C//DTD SVG 1.1//EN" "http://www.w3.org/Graphics/SVG/1.1/DTD/svg11.dtd" >
<!--
2013-9-30: Created.
-->
<svg>
<metadata>
Created by iconfont
</metadata>
<defs>

<font id="iconfont" horiz-adv-x="1024" >
  <font-face
    font-family="iconfont"
    font-weight="500"
    font-stretch="normal"
    units-per-em="1024"
    ascent="896"
    descent="-128"
  />
    <missing-glyph />
    
    <glyph glyph-name="guanbi" unicode="&#58886;" d="M872.802928 140.00594 872.864326 140.00594 872.864326 140.375354ZM927.846568 384.002047c0 229.315756-186.567139 415.839917-415.838893 415.839917-229.329059 0-415.85322-186.524161-415.85322-415.839917 0-229.300406 186.524161-415.84094 415.85322-415.84094C741.278405-31.838893 927.846568 154.70164 927.846568 384.002047M512.007675 27.828045c-196.375529 0-356.172979 159.827125-356.172979 356.174002 0 196.374506 159.797449 356.157629 356.172979 356.157629 196.34483 0 356.144326-159.783123 356.144326-356.157629C868.152001 187.65517 708.352505 27.828045 512.007675 27.828045M682.378947 253.772007 553.797453 382.735194 682.261267 509.770472c11.661597 11.514241 11.749602 30.332842 0.234337 41.995463-11.514241 11.676947-30.362518 11.765975-42.026162 0.222057L511.888971 424.804335 385.223107 551.869289c-11.602246 11.603269-30.393217 11.661597-42.025139 0.059352-11.603269-11.618619-11.603269-30.407544-0.059352-42.011836l126.518508-126.887922L342.137823 256.895137c-11.662621-11.543917-11.780301-30.305213-0.23536-41.96988 5.830799-5.89015 13.429871-8.833179 21.086248-8.833179 7.53972 0 15.136745 2.8847 20.910239 8.569166l127.695311 126.311801L640.293433 211.804173c5.802146-5.8001 13.428847-8.717546 21.056572-8.717546 7.599072 0 15.165398 2.917446 20.968567 8.659217C693.922864 223.318414 693.950494 242.110409 682.378947 253.772007"  horiz-adv-x="1024" />

    
    <glyph glyph-name="zhengque" unicode="&#58954;" d="M994.305189 729.839633c-39.944757 40.916898-104.705714 40.916898-144.652518 0L391.586025 260.496152 174.610318 482.8084c-39.946804 40.935318-104.706737 40.935318-144.643308 0-39.956014-40.917922-39.956014-107.283422 0-148.214646l289.295825-296.41906c39.945781-40.936341 104.700597-40.936341 144.647401 0l530.394952 543.450293C1034.251993 622.552118 1034.251993 688.908408 994.305189 729.839633z"  horiz-adv-x="1025" />

    
    <glyph glyph-name="-xiaoxuxian" unicode="&#58944;" d="M934.4 405.333333h-51.2a25.6 25.6 0 1 1 0-51.2h51.2a25.6 25.6 0 1 1 0 51.2zM115.2 405.333333h-34.133333a25.6 25.6 0 1 1 0-51.2h34.133333a25.6 25.6 0 1 1 0 51.2zM388.266667 405.333333h-51.2a25.6 25.6 0 1 1 0-51.2h51.2a25.6 25.6 0 1 1 0 51.2zM251.733333 405.333333h-51.2a25.6 25.6 0 1 1 0-51.2h51.2a25.6 25.6 0 1 1 0 51.2zM524.8 405.333333h-51.2a25.6 25.6 0 1 1 0-51.2h51.2a25.6 25.6 0 1 1 0 51.2zM797.866667 405.333333h-51.2a25.6 25.6 0 1 1 0-51.2h51.2a25.6 25.6 0 1 1 0 51.2zM661.333333 405.333333h-51.2a25.6 25.6 0 1 1 0-51.2h51.2a25.6 25.6 0 1 1 0 51.2z"  horiz-adv-x="1024" />

    
    <glyph glyph-name="dash" unicode="&#60382;" d="M112 420h160v-72H112z m320 0h160v-72H432z m320 0h160v-72H752z"  horiz-adv-x="1024" />

    
    <glyph glyph-name="758bianjiqi_fengexian" unicode="&#58962;" d="M0.568 407.014h1022.864v-85.24H0.568v85.24z"  horiz-adv-x="1024" />

    
    <glyph glyph-name="fengexian" unicode="&#58990;" d="M814.81 169.307l-88.117-88.118h-49.748l137.866 137.866v-49.748z m0-64.758v-23.36h-23.359l23.36 23.36z m0 179.264L612.188 81.189H562.44l216.293 216.294h36.078v-13.67z m-100.835 13.67L497.68 81.189h-49.747l216.293 216.294h49.748z m-114.55 0L383.133 81.189h-49.747l216.293 216.294h49.748z m-114.505 0L268.627 81.189h-49.748l216.294 216.294h49.747z m-114.506 0L209.19 136.258v49.271l111.954 111.954h49.315z m-114.03 0l-47.195-47.196v47.196h47.196z m558.427 326.04L705.063 513.776h-49.747l159.495 159.495v-49.748z m0-64.758v-44.989h-44.99l44.99 44.989z m-51.219 128.046L590.558 513.776H540.81l173.035 173.035h49.747z m-114.505 0L476.052 513.776h-49.747l173.034 173.035h49.748z m-114.592 0L361.46 513.776h-49.748l173.035 173.035h49.748z m-114.463 0L246.997 513.776H209.19v11.896l161.139 161.139h49.747z m-114.506 0l-96.337-96.337v49.271l47.066 47.066h49.315zM122.672 427.259h778.656V384H122.672v43.259z"  horiz-adv-x="1024" />

    
    <glyph glyph-name="meh" unicode="&#60398;" d="M288 475a48 48 0 1 1 96 0 48 48 0 1 1-96 0z m352 0a48 48 0 1 1 96 0 48 48 0 1 1-96 0zM512 832C264.6 832 64 631.4 64 384s200.6-448 448-448 448 200.6 448 448S759.4 832 512 832z m263-711c-34.2-34.2-74-61-118.3-79.8C611 21.8 562.3 12 512 12c-50.3 0-99 9.8-144.8 29.2-44.3 18.7-84.1 45.6-118.3 79.8-34.2 34.2-61 74-79.8 118.3C149.8 285 140 333.7 140 384s9.8 99 29.2 144.8c18.7 44.3 45.6 84.1 79.8 118.3 34.2 34.2 74 61 118.3 79.8C413 746.2 461.7 756 512 756c50.3 0 99-9.8 144.8-29.2 44.3-18.7 84.1-45.6 118.3-79.8 34.2-34.2 61-74 79.8-118.3C874.2 483 884 434.3 884 384s-9.8-99-29.2-144.8c-18.7-44.3-45.6-84.1-79.8-118.2zM664 331H360c-4.4 0-8-3.6-8-8v-48c0-4.4 3.6-8 8-8h304c4.4 0 8 3.6 8 8v48c0 4.4-3.6 8-8 8z"  horiz-adv-x="1024" />

    
    <glyph glyph-name="fanhui" unicode="&#58985;" d="M475.591111 595.626667V720.782222c-11.377778 52.337778-54.613333 20.48-54.613333 20.48L120.604444 484.124444c-65.991111-45.511111-4.551111-79.644444-4.551111-79.644444l295.822223-254.862222c59.164444-43.235556 63.715556 22.755556 63.715555 22.755555v116.053334C775.964444 381.724444 898.844444 8.533333 898.844444 8.533333c11.377778-20.48 18.204444 0 18.204445 0 116.053333 559.786667-441.457778 587.093333-441.457778 587.093334z"  horiz-adv-x="1024" />

    
    <glyph glyph-name="fanhui_huabanfuben" unicode="&#58887;" d="M827-17H197a62.07 62.07 0 0 0-62 62V675a62.07 62.07 0 0 0 62 62h630a62.07 62.07 0 0 0 62-62v-144a12 12 0 0 0-24 0V675a38 38 0 0 1-38 38H197a38 38 0 0 1-38-38v-630a38 38 0 0 1 38-38h630a38 38 0 0 1 38 38V192a12 12 0 0 0 24 0v-147a62.07 62.07 0 0 0-62-62zM496 360l80 80M496 348a12 12 0 0 0-8.49 20.49l80 80a12 12 0 0 0 17-17l-80-80A12 12 0 0 0 496 348zM576 280l-80 80M576 268a12 12 0 0 0-8.49 3.51l-80 80a12 12 0 0 0 17 17l80-80A12 12 0 0 0 576 268zM496 360h381M877 348H496a12 12 0 0 0 0 24h381a12 12 0 0 0 0-24z"  horiz-adv-x="1024" />

    
    <glyph glyph-name="xiaolian" unicode="&#58978;" d="M511.3 800.9c230.3 0 417-186.7 417-417s-186.7-417-417-417-417 186.7-417 417c0 230.4 186.7 417 417 417zM928.3 384c0 230.3-186.7 417-417 417s-417-186.7-417-417 186.7-417 417-417 417 186.7 417 417zM498.7 14.1C287.3 14.1 116 185.5 116 396.9s171.4 382.8 382.8 382.8 382.8-171.4 382.8-382.8-171.5-382.8-382.9-382.8zM498.7 779.6C287.3 779.6 116 608.3 116 396.9s171.4-382.8 382.8-382.8 382.8 171.4 382.8 382.8-171.5 382.7-382.9 382.7z m-16.3-695.1c-182.4 0-330.3 147.9-330.3 330.3S300 745.2 482.4 745.2s330.3-147.9 330.3-330.3-147.8-330.4-330.3-330.4zM482.4 745.2c-182.4 0-330.3-147.9-330.3-330.3S300 84.5 482.4 84.5s330.3 147.9 330.3 330.3-147.8 330.4-330.3 330.4zM466.1 155c-153.5 0-277.9 124.4-277.9 277.9s124.4 277.9 277.9 277.9S744 586.3 744 432.9 619.6 155 466.1 155zM466.1 710.7c-153.5 0-277.9-124.4-277.9-277.9S312.7 155 466.1 155 744 279.4 744 432.9 619.6 710.7 466.1 710.7z m-16.3-485.3c-124.5 0-225.4 100.9-225.4 225.4s100.9 225.4 225.4 225.4 225.4-100.9 225.4-225.4-100.9-225.4-225.4-225.4zM449.8 676.3c-124.5 0-225.4-100.9-225.4-225.4s100.9-225.4 225.4-225.4 225.4 100.9 225.4 225.4-100.9 225.4-225.4 225.4z m-16.2-380.4c-95.5 0-173 77.4-173 173s77.4 173 173 173 173-77.4 173-173-77.5-173-173-173zM433.6 641.8c-95.5 0-173-77.4-173-173s77.4-173 173-173 173 77.4 173 173-77.5 173-173 173z m-16.3-275.5c-66.6 0-120.5 54-120.5 120.5s54 120.5 120.5 120.5 120.5-54 120.5-120.5-54-120.5-120.5-120.5zM417.3 486.8m-120.5 0a120.5 120.5 0 1 1 241 0 120.5 120.5 0 1 1-241 0ZM511.3 782.9c53.9 0 106.1-10.5 155.3-31.3 47.5-20.1 90.2-48.9 126.8-85.5 36.7-36.6 65.4-79.3 85.5-126.8 20.8-49.2 31.3-101.4 31.3-155.3S899.8 277.8 879 228.6c-20.1-47.5-48.9-90.2-85.5-126.8s-79.3-65.4-126.8-85.5C617.5-4.5 565.2-15 511.3-15S405.2-4.5 356 16.3c-47.5 20.1-90.2 48.9-126.8 85.5-36.6 36.6-65.4 79.3-85.5 126.8-20.8 49.2-31.3 101.4-31.3 155.3 0 53.9 10.5 106.1 31.3 155.3 20.1 47.5 48.9 90.2 85.5 126.8s79.3 65.4 126.8 85.5c49.2 20.9 101.5 31.4 155.3 31.4m0 18c-230.3 0-417-186.7-417-417s186.7-417 417-417 417 186.7 417 417c0 230.4-186.7 417-417 417zM363.6 451.3c33.6 0 60.8 31.1 60.8 69.5s-27.2 69.5-60.8 69.5c-33.6 0-60.8-31.1-60.8-69.5s27.3-69.5 60.8-69.5z m295.4 0c33.6 0 60.8 31.1 60.8 69.5s-27.2 69.5-60.8 69.5c-33.6 0-60.8-31.1-60.8-69.5s27.2-69.5 60.8-69.5z m26.4-86.9H337.3c-21.7 0-37.9-19.5-33.8-40.4 19.1-95.8 104.9-168.1 207.8-168.1S700 228.2 719.1 324c4.3 20.9-12 40.4-33.7 40.4zM219.4 574.9c-3.6 0-7.2 1.1-10.3 3.3-8.1 5.7-10.1 16.9-4.4 25.1 42.7 61 94.3 94 96.5 95.4 8.4 5.3 19.5 2.8 24.8-5.6 5.3-8.4 2.8-19.5-5.6-24.8-0.7-0.4-47.9-30.9-86.2-85.6-3.5-5.1-9.1-7.8-14.8-7.8zM181.6 514.5c-3 0-6 0.7-8.8 2.3-8.7 4.8-11.8 15.8-6.9 24.5l5.5 9.8c4.8 8.7 15.8 11.8 24.5 6.9s11.8-15.8 6.9-24.5l-5.5-9.8c-3.3-5.9-9.4-9.2-15.7-9.2z"  horiz-adv-x="1024" />

    
    <glyph glyph-name="xiaolian1" unicode="&#58896;" d="M958.2 571.3c-24.3 57.5-59.2 109.2-103.5 153.6-44.4 44.4-96 79.2-153.6 103.5-59.6 25.2-122.9 38-188.1 38s-128.5-12.8-188.1-38c-57.5-24.3-109.2-59.2-153.6-103.5-44.4-44.4-79.2-96-103.5-153.6-25.2-59.6-38-122.9-38-188.1s12.8-128.5 38-188.1c24.3-57.5 59.2-109.2 103.5-153.6 44.4-44.4 96-79.2 153.6-103.5 59.6-25.2 122.9-38 188.1-38s128.5 12.8 188.1 38c57.5 24.3 109.2 59.2 153.6 103.5s79.2 96 103.5 153.6c25.2 59.6 38 122.9 38 188.1s-12.8 128.5-38 188.1zM513-28c-226.7 0-411.2 184.5-411.2 411.2S286.3 794.4 513 794.4s411.2-184.5 411.2-411.2S739.7-28 513-28zM694.9 271.79999999999995c-18.9 6.2-39.2-4.1-45.4-23-19.3-59.1-74.1-98.8-136.4-98.8-59.3 0-113.2 37.2-134.2 92.7-7 18.6-27.8 28-46.4 20.9-18.6-7-28-27.8-20.9-46.4 15.3-40.5 42.2-75.1 77.7-100.1 36.4-25.6 79.2-39.1 123.8-39.1 46.3 0 90.5 14.5 127.7 41.9 36.4 26.9 63.1 63.7 77.1 106.5 6.2 18.9-4.1 39.2-23 45.4zM350 341.9c19.9 0 36 16.1 36 36V561.6c0 19.9-16.1 36-36 36s-36-16.1-36-36v-183.7c0-19.9 16.1-36 36-36zM674.1 341.9c19.9 0 36 16.1 36 36V561.6c0 19.9-16.1 36-36 36s-36-16.1-36-36v-183.7c0-19.9 16.1-36 36-36z"  horiz-adv-x="1024" />

    
    <glyph glyph-name="kulian" unicode="&#59224;" d="M512-57.81818174c244.02272695 0 441.81818174 197.79545479 441.81818174 441.81818174C953.81818174 628.02272695 756.02272695 825.81818174 512 825.81818174 267.97727305 825.81818174 70.18181826 628.02272695 70.18181826 384c0-244.02272695 197.79545479-441.81818174 441.81818174-441.81818174z m0 65.45454522a376.36363653 376.36363653 0 1 0 0 752.72727305 376.36363653 376.36363653 0 0 0 0-752.72727305zM730.53636347 196.47272695000004c-121.95 121.95-317.65909131 124.48636348-437.07272694 5.07272784a32.72727305 32.72727305 0 1 1 46.30909042-46.26818174c93.55909131 93.55909131 247.82727305 91.55454521 344.4545461-5.07272784a32.72727305 32.72727305 0 1 1 46.30909043 46.22727305zM358.59090869 462.05454521m-51.13636348 0a51.13636347 51.13636347 0 1 1 102.27272784 0 51.13636347 51.13636347 0 1 1-102.27272784 0ZM665.40909131 462.05454521m-51.13636436 0a51.13636347 51.13636347 0 1 1 102.27272784 0 51.13636347 51.13636347 0 1 1-102.27272784 0Z"  horiz-adv-x="1024" />

    
    <glyph glyph-name="xiaolian2" unicode="&#58959;" d="M513.028 832.234c-247.628 0-448.369-200.319-448.369-447.426S265.4-62.617 513.028-62.617s448.369 200.319 448.369 447.426S760.655 832.234 513.028 832.234z m-0.203-823.563c-207.318 0-375.382 167.71-375.382 374.592s168.064 374.592 375.382 374.592 375.382-167.71 375.382-374.592-168.064-374.592-375.382-374.592zM514.029 128.184c-99.337 0-188.031 54.286-251.889 146.146-10.647 16.703-7.1 33.399 7.094 45.93 14.192 12.529 28.384 8.349 39.025-8.349 49.67-75.164 124.174-116.92 205.77-116.92s163.199 45.93 209.316 125.268c10.647 16.703 24.833 16.703 39.025 8.349 14.194-12.524 14.194-29.227 7.094-45.93-60.312-96.035-152.553-154.494-255.435-154.494z m-49.737 364.857l-45.151 45.151-0.05-0.05-90.45 90.45-45.15-45.15 90.45-90.45-90.45-90.451 45.15-45.15 90.45 90.45 0.05-0.05 45.151 45.151-0.05 0.05z m92.319 0l45.151 45.151 0.05-0.05 90.45 90.45 45.15-45.15-90.45-90.45 90.45-90.451-45.15-45.15-90.45 90.45-0.05-0.05-45.151 45.151 0.05 0.05z"  horiz-adv-x="1024" />

    
    <glyph glyph-name="denglutuxiang" unicode="&#58913;" d="M512 384m-512 0a512 512 0 1 1 1024 0 512 512 0 1 1-1024 0ZM601.6 332.8c113.1136 0 204.8-91.6864 204.8-204.8v-39.7696c0-42.1504-20.1344-42.1504-53.824-42.1504H272.3456C235.5072 46.08 217.6 51.2 217.6 88.2304V128c0 113.1136 91.6864 204.8 204.8 204.8h179.2z m-89.6 384c91.904 0 166.4-74.496 166.4-166.4s-74.496-166.4-166.4-166.4-166.4 74.496-166.4 166.4 74.496 166.4 166.4 166.4z"  horiz-adv-x="1024" />

    
    <glyph glyph-name="X" unicode="&#58918;" d="M119.877276 896l904.094471-904.094471-119.905529-119.849023-904.094471 904.094471zM904.122724 896l119.849023-119.905529-904.094471-904.094471L0.141265-8.094471z"  horiz-adv-x="1024" />

    
    <glyph glyph-name="sousuo1" unicode="&#58885;" d="M446.112323 718.454949c137.567677-0.219798 252.612525-104.59798 266.162424-241.493333 13.562828-136.895354-78.778182-261.818182-213.617777-289.008485-134.852525-27.203232-268.386263 52.156768-308.945455 183.608889s25.018182 272.252121 151.738182 325.779394A267.235556 267.235556 0 0 0 446.112323 718.454949m0 62.060607c-182.794343 0-330.989899-148.195556-330.989899-330.989899s148.195556-330.989899 330.989899-330.989899 330.989899 148.195556 330.989899 330.989899-148.195556 330.989899-330.989899 330.989899z m431.321212-793.341415a30.849293 30.849293 0 0 0-21.94101 9.102223l-157.220202 157.220202c-11.752727 12.179394-11.584646 31.534545 0.37495 43.50707 11.972525 11.972525 31.327677 12.140606 43.494141 0.37495l157.220202-157.220202a31.036768 31.036768 0 0 0 6.723232-33.810101 31.004444 31.004444 0 0 0-28.651313-19.174142z m0 0"  horiz-adv-x="1024" />

    
    <glyph glyph-name="mima" unicode="&#59092;" d="M807.52 459.904H733.44V626.496a185.088 185.088 0 0 1-185.088 185.088h-74.048a185.088 185.088 0 0 1-185.12-185.088v-166.592H215.2a74.048 74.048 0 0 1-74.048-74.048v-277.664a148.096 148.096 0 0 1 148.064-148.064h444.256a148.096 148.096 0 0 1 148.096 148.064v277.664a74.048 74.048 0 0 1-74.048 74.048z m-481.28 166.592a148.096 148.096 0 0 0 148.096 148.064h74.048a148.096 148.096 0 0 0 148.064-148.064v-166.592H326.24V626.496zM844.544 108.16a111.04 111.04 0 0 0-111.04-111.04H289.184a111.04 111.04 0 0 0-111.04 111.04v277.664c0 20.448 16.576 37.024 37.024 37.024h592.32c20.448 0 37.024-16.576 37.024-37.024v-277.664zM511.36 330.336a55.52 55.52 0 0 1-18.528-107.904v-40.192a18.528 18.528 0 0 1 37.024 0v40.192a55.552 55.552 0 0 1-18.496 107.904z m0-74.048a18.528 18.528 0 1 0 0 37.024 18.528 18.528 0 0 0 0-37.024z"  horiz-adv-x="1024" />

    
    <glyph glyph-name="mima1" unicode="&#58941;" d="M677.7 411.9c47 47 72.9 109.4 72.9 175.9s-25.9 128.9-72.9 175.9c-47 47-109.4 72.9-175.9 72.9s-128.9-25.9-175.9-72.9c-47-47-72.9-109.4-72.9-175.9 0-49.8 14.7-97.9 42.5-139.1 12.7-18.8 38.2-23.7 56.9-11 18.8 12.7 23.7 38.2 11 56.9-18.6 27.6-28.5 59.8-28.5 93.2 0 91.9 74.8 166.7 166.7 166.7 91.9 0 166.7-74.8 166.7-166.7s-74.8-166.7-166.7-166.7c-2.5 0-4.9-0.2-7.3-0.7-102.8-1.8-199.6-42.3-273.2-114.4-75.3-73.7-118-172.2-120.3-277.4-0.5-22.6 17.4-41.4 40.1-41.9h0.9c22.2 0 40.5 17.8 41 40.1 3.8 171.9 146.9 311.7 318.8 311.7 2.6 0 5.1 0.3 7.6 0.7 63.8 1.9 123.3 27.6 168.5 72.7zM846.3 216.7c-34.2 57.3-82.5 105.6-139.8 139.7-19.5 11.6-44.6 5.2-56.2-14.3-11.6-19.5-5.2-44.6 14.3-56.2 95.1-56.6 153.4-156.3 156-266.6 0.5-22.3 18.8-40 41-40h1c22.6 0.5 40.6 19.3 40 42-1.6 68.8-21.1 136.4-56.3 195.4z"  horiz-adv-x="1024" />

    
    <glyph glyph-name="mima2" unicode="&#59480;" d="M801.28 528.384h-35.84V637.44c-2.048 135.68-113.664 245.76-249.344 245.76h-7.168C372.736 883.2 261.12 773.12 259.072 637.44v-109.056h-36.352C143.36 528.384 77.312 463.36 76.288 384v-354.816c1.024-79.872 67.072-144.384 146.432-144.384h578.56c79.36 0 145.408 65.024 146.432 144.384V384c-1.024 79.36-66.56 144.384-146.432 144.384zM321.536 637.952c4.096 102.4 88.064 182.784 190.464 182.784h8.192c98.304-4.096 178.688-84.48 182.784-182.784v-109.056H321.536V637.952z m563.2-608.768c-0.512-46.08-38.912-83.456-84.992-83.456H223.744c-46.08 0-83.968 37.376-84.992 83.456V384c0.512 46.08 38.912 83.456 84.992 83.456h576c46.08 0 83.968-37.376 84.992-83.456v-354.816zM224.768-54.272zM512.512 313.856c-17.408 0-31.744-14.336-31.744-31.744v-152.064c0.512-16.896 14.336-30.208 31.232-30.208h0.512c16.896 0 30.72 13.312 31.232 30.208v152.064c0 17.92-13.824 31.744-31.232 31.744z"  horiz-adv-x="1024" />

    
    <glyph glyph-name="zhanghao" unicode="&#58883;" d="M513 343.4c-63.6 0-123.4 24.8-168.4 69.7s-69.7 104.8-69.7 168.4 24.8 123.4 69.7 168.4S449.4 819.6 513 819.6s123.4-24.8 168.4-69.7c45-45 69.7-104.8 69.7-168.4s-24.8-123.4-69.7-168.4c-45-45-104.8-69.7-168.4-69.7z m0 436.2c-109.2 0-198.1-88.9-198.1-198.1S403.8 383.4 513 383.4s198.1 88.9 198.1 198.1c0 109.3-88.9 198.1-198.1 198.1zM513 337.7h2.4c5.9 0.5 11.9 0.7 18 0.4 7.3-0.3 14.5-0.8 21.8-0.4 4 0.8 8 1.9 11.9 3.2 2.5 1.1 5.1 2.1 7.7 3.1 4.3 2.2 8.6 4.4 12.8 6.8 7.7 4.5 15.4 9.2 23.3 13.3-31.6 9-64.4 13.6-97.8 13.6-48.1 0-94.7-9.4-138.7-28-42.4-17.9-80.5-43.6-113.2-76.3s-58.4-70.8-76.3-113.2c-18.6-43.9-28-90.6-28-138.7 0-13.5 0.8-26.8 2.2-40.1 1.4-0.3 2.7-0.6 4.1-0.9 0.1 0 0.3-0.1 0.5-0.1 0.6-0.1 2.4-0.3 2.9-0.4 3.1-0.3 6.3-0.4 9.4-0.3 1.5 0 3.1 0.1 4.6 0.1h0.2c0.6 0.1 1.2 0.3 1.8 0.4 0.4 0.1 1.3 0.4 2 0.7l2.7 1.5c1.7 1 3.3 2.3 4.9 3.4 0.7 0.6 1.5 1.2 2.2 1.9 1.3 1.1 2.5 2.2 3.8 3.3-1 10-1.5 20.2-1.5 30.4 0.1 174.5 141.9 316.3 316.3 316.3zM841.2 160.2c-17.2 40.7-41.5 77.4-72.3 109.1-4.2-0.1-8.4-0.3-12.6-0.6-3.4-0.6-6.7-1.4-10-2.4-1.1-0.6-2.2-1.3-3.3-1.9-1.6-1.5-3.1-3.1-4.6-4.7-2.1-3.1-4-6.4-5.6-9.8l-0.3-0.9c59.6-57.5 96.7-138.2 96.7-227.4 0-13.9-0.9-27.5-2.6-40.9 0.6-0.4 1-0.7 1.3-0.9 1.1-0.7 2.3-1.3 3.5-1.9 0.8-0.3 1.6-0.6 2.5-0.8 2-0.6 4-1.1 6-1.5 1.1-0.2 2.2-0.4 3.4-0.6 0.7-0.1 1.1-0.2 1.3-0.3h3c6.3-0.3 12.5-0.1 18.8 0.4 2 15.3 3 30.8 3 46.5-0.2 48-9.6 94.6-28.2 138.6z"  horiz-adv-x="1024" />

    
    <glyph glyph-name="denglumima" unicode="&#59057;" d="M861.157959 449.850052l-574.103933 0.934c-0.225 76.547991-21.025998 195.146977 44.895995 267.129969a261.217969 261.217969 0 0 0 180.143979 89.004989c106.739987 0 186.540978-79.576991 225.188974-178.085979 11.223999-28.395997 21.175998-43.697995 44.895994-44.520994 59.859993-1.796 56.119993 60.645993 44.894995 89.042989C771.25397 815.525009 666.533982 895.963 511.794 895.963c-105.167988 0-163.082981-21.325998-225.189974-89.04399-95.027989-103.446988-90.313989-270.719968-90.089989-356.134958l-33.671996-0.972a55.894993 55.894993 0 0 1-56.567993-55.184993v-467.325945a55.894993 55.894993 0 0 1 56.567993-55.296994h697.454918a55.894993 55.894993 0 0 1 56.568994 55.296994V394.627059a55.819993 55.819993 0 0 1-56.531994 55.184993z m-32.099996-443.869948a42.388995 42.388995 0 0 0-13.244999-31.538996 43.623995 43.623995 0 0 0-31.875996-13.093998H242.420032a43.211995 43.211995 0 0 0-31.837997 13.093998 42.762995 42.762995 0 0 0-13.281998 31.539996v312.209964a44.895995 44.895995 0 0 0 45.119995 44.521994H783.899968a44.895995 44.895995 0 0 0 45.119995-44.521994v-312.209964z"  horiz-adv-x="1024" />

    
    <glyph glyph-name="saoyisao" unicode="&#58882;" d="M66.56 532.864c0-1.152 0.384-28.672 28.672-28.672s28.672 27.52 28.672 28.672V711.04c0 33.664 27.392 61.056 61.056 61.056h178.176c1.152 0 28.672 0.384 28.672 28.672s-27.52 28.672-28.672 28.672H184.832c-65.28 0-118.272-53.12-118.272-118.272v-178.304zM750.208 412.672H273.92c-15.744 0-28.672-12.8-28.672-28.672 0-15.744 12.8-28.672 28.672-28.672h476.288c15.744 0 28.672 12.8 28.672 28.672-0.128 15.744-12.928 28.672-28.672 28.672zM928.768 504.192c28.288 0 28.672 27.52 28.672 28.672V711.168c0 65.28-53.12 118.272-118.272 118.272H660.864c-1.152 0-28.672-0.384-28.672-28.672s27.52-28.672 28.672-28.672H839.04c33.664 0 61.056-27.392 61.056-61.056v-178.176c0-1.152 0.384-28.672 28.672-28.672zM95.232 263.808c-28.288 0-28.672-27.52-28.672-28.672v-178.304c0-65.28 53.12-118.272 118.272-118.272h178.304c1.152 0 28.672 0.384 28.672 28.672s-27.52 28.672-28.672 28.672H184.96c-33.664 0-61.056 27.392-61.056 61.056V235.13599999999997c0 1.152-0.384 28.672-28.672 28.672zM957.44 235.13599999999997c0 1.152-0.384 28.672-28.672 28.672s-28.672-27.52-28.672-28.672V56.960000000000036c0-33.664-27.392-61.056-61.056-61.056H660.864c-1.152 0-28.672-0.384-28.672-28.672s27.52-28.672 28.672-28.672h178.304c65.28 0 118.272 53.12 118.272 118.272V235.13599999999997z"  horiz-adv-x="1024" />

    
    <glyph glyph-name="shanchu" unicode="&#58912;" d="M512 864C246.4 864 32 649.6 32 384s214.4-480 480-480 480 214.4 480 480S777.6 864 512 864m201.6-681.6c-12.8-12.8-35.2-12.8-48 0L512 336 358.4 182.4c-12.8-12.8-35.2-12.8-48 0-12.8 12.8-12.8 35.2 0 48L464 384 310.4 537.6c-12.8 12.8-12.8 35.2 0 48 12.8 12.8 35.2 12.8 48 0L512 432l153.6 153.6c12.8 12.8 35.2 12.8 48 0 12.8-12.8 12.8-35.2 0-48L560 384l153.6-153.6c16-12.8 16-35.2 0-48m0 0z"  horiz-adv-x="1024" />

    
    <glyph glyph-name="quanbu" unicode="&#59072;" d="M467.2768 408.21248h22.33856v212.224c0 117.20192-95.01696 212.21888-212.21888 212.21888S65.1776 737.6384 65.1776 620.43648c0-117.20704 95.01696-212.21888 212.21888-212.21888h189.88032v-0.00512z m-357.42208 212.224c0 92.52864 75.01312 167.54176 167.54176 167.54176s167.54176-75.01312 167.54176-167.54176v-189.88032l22.33856 22.33856H277.39136c-92.52864 0-167.53664 75.008-167.53664 167.54176z m357.42208-301.57824l-22.33856 22.33856v-189.88032c0-92.52864-75.01312-167.54176-167.54176-167.54176s-167.54176 75.008-167.54176 167.54176 75.01312 167.54176 167.54176 167.54176h189.88032z m-402.10432-167.53664c0-117.20704 95.01696-212.21888 212.21376-212.21888 117.20704 0 212.224 95.01696 212.224 212.21888v212.21888H277.39136c-117.20192 0-212.21888-95.01696-212.21888-212.21888z m491.45344 301.57312l22.33856-22.33856V620.43648c0 92.52864 75.008 167.54176 167.54688 167.54176 92.52864 0 167.54176-75.01312 167.54176-167.54176 0-92.53376-75.008-167.54176-167.54176-167.54176h-189.88544z m402.0992 167.54176c0 117.20192-95.01696 212.21888-212.21376 212.21888-117.21216 0-212.224-95.01696-212.224-212.21888V408.2176h212.224c117.1968-0.00512 212.21376 95.01184 212.21376 212.21888z m0-469.11488c0 117.20704-95.01696 212.21888-212.21376 212.21888h-212.224v-212.21888c0-117.20704 95.01696-212.21888 212.224-212.21888a211.48672 211.48672 0 0 1 93.70112 21.76 22.34368 22.34368 0 0 1-19.75296 40.07424 166.77888 166.77888 0 0 0-73.94816-17.15712c-92.53376 0-167.54688 75.008-167.54688 167.54176v189.88032l-22.33856-22.33856h189.88544c92.52864 0 167.54176-75.008 167.54176-167.54176a167.3728 167.3728 0 0 0-6.84032-47.5392 22.33856 22.33856 0 1 1 42.84928-12.65152 212.10624 212.10624 0 0 1 8.66304 60.19072z"  horiz-adv-x="1024" />

    
    <glyph glyph-name="dengpao" unicode="&#58933;" d="M768.2 582.9c-14 33.2-34.1 63-59.7 88.5-25.6 25.6-55.4 45.7-88.5 59.7-34.4 14.5-70.8 21.9-108.4 21.9-37.6 0-74.1-7.4-108.4-21.9-33.2-14-63-34.1-88.5-59.7-25.6-25.6-45.7-55.4-59.7-88.5-14.5-34.3-21.9-70.8-21.9-108.4 0-50.2 13.5-99.4 39-142.3 23.9-40.2 60.8-73.9 101.3-97.7V48c0-17.9 14.5-32.5 32.5-32.5h211.6c17.9 0 32.5 14.5 32.5 32.5V235.1c40.1 23.7 77.2 57.1 101 96.8 25.6 43 39.2 92.2 39.2 142.5-0.1 37.7-7.5 74.1-22 108.5zM605.6 48.2H417.7c-6.4 0-11.6 5.2-11.6 11.6V121h211.1v-61.2c0-6.4-5.2-11.6-11.6-11.6zM628 260.3c-6.3-2.3-10.9-8.3-10.9-15.4v-91.1h-89.5V376.9h105.8c9 0 16.4 7.3 16.4 16.4 0 9-7.3 16.4-16.4 16.4H389.7c-9 0-16.4-7.3-16.4-16.4 0-9 7.3-16.4 16.4-16.4H495v-223.1h-88.8v91.1c0 7.1-4.5 13.1-10.9 15.4-76.5 43.7-129.6 126.2-129.6 214.2 0 135.5 110.3 245.8 245.8 245.8S757.3 610 757.3 474.5c0-88.6-52-170.7-129.3-214.2z m0 0"  horiz-adv-x="1024" />

    
    <glyph glyph-name="banshou" unicode="&#58884;" d="M19 83.5C8.375 63.5 2.25 40.625 2.25 16.375 2.25-62.5 66.25-126.5 145.125-126.5c25.875 0 50.25 6.875 71.125 19 5.375 1.875 10.125 4.875 14.125 8.875l1.875 1.875c9.625 7.375 18.25 16 25.625 25.5L542.625 212.25c39.375-15.125 82.125-23.5 126.75-23.5 195.125 0 353.25 158.125 353.25 353.25 0 52.375-11.5 102.125-31.875 146.875-1.25 5.125-3.625 10-6.875 14.25-2.25 4.375-4.625 8.75-7 13.125l-3.875-3.625c-14.25 8-32.5 6-44.625-6.125L761.25 538.375l-95.75 96.5L832.125 802.625c11.5 11.5 13.875 28.625 7.125 42.5l4.25 4.25c-4 2.25-8.125 4.5-12.375 6.625-5.625 5.25-12.75 8.625-20.375 9.625C767.625 884.75 719.75 895.25 669.5 895.25 474.375 895.25 316.25 737.125 316.25 542c0-5.5 0.125-10.875 0.375-16.375l-0.25-2.5c0-2.75 0.375-5.375 0.875-8 2.75-35.875 10.75-70.25 23.375-102.375L29.125 102.5c-5.125-5.125-8.75-11.875-10.125-19zM145.125-53.25c-38.375 0-69.5 31.125-69.5 69.5 0 14.75 4.625 29 13.375 40.875l15.375 15.25c1.75 1.25 3.5 2.375 5.25 3.5l76.25 77.375-0.25 0.125 14.875 14.875 32.75 33.25 0.25-0.375 177.75 177.125c14.5 14.5 14.5 38.125 0 52.625-1.75 1.75-3.75 3.375-5.875 4.75l4.625 3.25c-10.625 26.5-17.375 55.125-19.375 84.875l0.25 3c0 2.625-0.25 5.125-0.75 7.625-0.125 2.875-0.125 5.75-0.125 8.625 0 154.75 125.5 280.25 280.25 280.25 23.75 0 46.875-3 68.875-8.5l-145-146c-1.625-1.625-3-3.25-4.25-5.125-1-0.875-2-1.625-2.875-2.625-14.5-14.5-14.5-38.125 0-52.625l148.25-149.375c14.5-14.5 38-14.5 52.625 0 1.75 1.75 3.25 3.5 4.5 5.5 1.125 0.875 2.125 1.75 3.125 2.75l146 146.875c6-22.75 9.125-46.625 9.125-71.25 0-154.75-125.5-280.25-280.25-280.25-52.5 0-101.5 14.375-143.5 39.5l-53.75-53.75c0.125-0.125 0.25-0.125 0.375-0.25L282 57.5c-0.125 0.5-0.375 1-0.5 1.5l-74.375-74c-0.75-1.625-1.625-3.25-2.625-4.75l-23.875-23.75c-10.25-6.125-22.5-9.75-35.5-9.75z m0 0"  horiz-adv-x="1024" />

    
    <glyph glyph-name="shoucang" unicode="&#58881;" d="M786.309939-107.349333c-11.093333 0-23.893333 3.754667-34.986666 9.216l-239.616 119.808L270.043273-98.133333c-23.893333-12.970667-55.296-11.093333-77.482667 5.461333s-34.986667 46.08-29.525333 73.728l49.834666 258.048L23.088606 416.085333C2.779273 436.394667-4.559394 467.797333 2.779273 493.568c9.216 27.648 31.402667 47.957333 60.757333 51.541333l263.68 47.957334L445.317939 832.853333c12.970667 25.770667 38.741333 42.325333 66.389334 42.325334S567.003273 858.624 578.096606 832.853333l117.930667-239.616 263.68-46.08c27.648-3.754667 51.541333-23.893333 59.050666-51.541333 9.216-27.648 1.877333-57.173333-18.432-77.482667L810.203273 239.10400000000004l47.957333-258.048c5.461333-29.525333-7.338667-57.173333-29.525333-73.728-10.922667-9.216-25.770667-14.677333-42.325334-14.677333z"  horiz-adv-x="1024" />

    
    <glyph glyph-name="fanhui-copy-copy" unicode="&#58880;" d="M263.50933334 434.176c12.8 0 25.6-5.12 35.84000001-14.848l415.74399999-411.648c19.968-19.968 19.968-51.712 0.512-71.68s-51.712-19.968-71.68-0.51199999l-415.744 411.64799999a50.8416 50.8416 0 0 0-0.51199999 71.68c9.216 10.75200001 22.528 15.36 35.83999999 15.36zM674.64533334 849.92c12.8 0 25.6-5.12 35.84-14.848 19.968-19.968 19.968-51.712 0.512-71.68l-411.648-415.744a50.8416 50.8416 0 0 0-71.68-0.512 50.8416 50.8416 0 0 0-0.512 71.67999999L638.80533334 834.56000001c9.728 10.24 23.04 15.36 35.84 15.35999999z"  horiz-adv-x="1024" />

    
    <glyph glyph-name="tubiao-" unicode="&#58964;" d="M485.376 657.067c-132.21-0-239.388-107.178-239.388-239.388 0-132.211 107.178-239.388 239.388-239.388 132.211 0 239.388 107.178 239.388 239.388 0 0.16-0 0.32-0 0.48-0.388 131.938-107.39 238.78-239.376 238.909zM485.376 212.423c-113.108 0-204.8 91.692-204.8 204.8s91.692 204.8 204.8 204.8c113.108 0 204.8-91.692 204.8-204.8-0.517-112.716-92.010-203.89-204.798-203.89-0.001 0-0.001 0-0.002 0zM403.456 551.481c-45.32-27.804-75.093-77.080-75.093-133.309 0-0.013 0-0.027 0-0.040 0.002-9.422 7.642-17.060 17.067-17.060 9.424 0 17.064 7.639 17.067 17.062-0 0.117-0.001 0.255-0.001 0.393 0 43.979 23.276 82.521 58.181 103.98 4.178 3.451 6.473 8.081 6.473 13.247 0 9.426-7.641 17.067-17.067 17.067-2.393 0-4.671-0.492-6.738-1.381zM773.689 140.060l-78.279 78.279c-3.039 2.838-7.134 4.58-11.635 4.58-9.426 0-17.067-7.641-17.067-17.067 0-4.501 1.742-8.595 4.59-11.645l78.27-78.269c3.124-3.346 7.562-5.432 12.486-5.432 9.426 0 17.067 7.641 17.067 17.067 0 4.925-2.086 9.362-5.422 12.477z"  horiz-adv-x="1024" />

    
    <glyph glyph-name="sousuo" unicode="&#58967;" d="M448 704c140.8 0 256-115.2 256-256 0-57.6-19.2-115.2-54.4-156.8l160-160c12.8-12.8 12.8-32 0-44.8s-28.8-12.8-41.6-3.2l-3.2 3.2-160 160C563.2 211.2 505.6 192 448 192c-140.8 0-256 115.2-256 256s115.2 256 256 256z m0-64c-105.6 0-192-86.4-192-192s86.4-192 192-192 192 86.4 192 192-86.4 192-192 192zM336 480c19.2 0 32-12.8 32-32 0-41.6 32-76.8 73.6-80h6.4c19.2 0 32-12.8 32-32s-12.8-32-32-32c-80 0-144 64-144 144 0 19.2 12.8 32 32 32z"  horiz-adv-x="1024" />

    
    <glyph glyph-name="aixin" unicode="&#59563;" d="M667.786667 778.666667C832.864 778.666667 938.666667 646.293333 938.666667 468.138667c0-138.250667-125.098667-290.506667-371.573334-461.589334a96.768 96.768 0 0 0-110.186666 0C210.432 177.632 85.333333 329.888 85.333333 468.138667 85.333333 646.293333 191.136 778.666667 356.213333 778.666667c59.616 0 100.053333-20.832 155.786667-68.096C567.744 757.824 608.170667 778.666667 667.786667 778.666667z m0-63.146667c-41.44 0-70.261333-15.189333-116.96-55.04-2.165333-1.845333-14.4-12.373333-17.941334-15.381333a32.32 32.32 0 0 0-41.770666 0c-3.541333 3.018667-15.776 13.536-17.941334 15.381333-46.698667 39.850667-75.52 55.04-116.96 55.04C230.186667 715.52 149.333333 614.741333 149.333333 469.301333 149.333333 358.4 262.858667 220.757333 493.632 61.173333a32.352 32.352 0 0 1 36.736 0C761.141333 220.746667 874.666667 358.4 874.666667 469.301333c0 145.44-80.853333 246.218667-206.88 246.218667z"  horiz-adv-x="1024" />

    
    <glyph glyph-name="bianji" unicode="&#59564;" d="M862.709333 779.957333a32 32 0 1 0 45.248-45.248L455.445333 282.186667a32 32 0 1 0-45.258666 45.258666L862.709333 779.946667zM853.333333 448a32 32 0 0 0 64 0v-352c0-64.8-52.533333-117.333333-117.333333-117.333333H224c-64.8 0-117.333333 52.533333-117.333333 117.333333V672c0 64.8 52.533333 117.333333 117.333333 117.333333h341.333333a32 32 0 0 0 0-64H224a53.333333 53.333333 0 0 1-53.333333-53.333333v-576a53.333333 53.333333 0 0 1 53.333333-53.333333h576a53.333333 53.333333 0 0 1 53.333333 53.333333V448z"  horiz-adv-x="1024" />

    
    <glyph glyph-name="shezhi" unicode="&#59575;" d="M944.48 343.541333l-182.357333-330.666666a73.792 73.792 0 0 0-64.565334-38.325334h-362.133333a73.792 73.792 0 0 0-64.565333 38.325334l-182.357334 330.666666a75.338667 75.338667 0 0 0 0 72.682667l182.357334 330.666667a73.792 73.792 0 0 0 64.565333 38.325333h362.133333a73.792 73.792 0 0 0 64.565334-38.325333l182.357333-330.666667a75.338667 75.338667 0 0 0 0-72.682667z m-55.989333 31.146667a10.773333 10.773333 0 0 1 0 10.378667l-182.037334 330.666666a10.517333 10.517333 0 0 1-9.205333 5.482667H335.733333a10.517333 10.517333 0 0 1-9.205333-5.482667l-182.037333-330.666666a10.773333 10.773333 0 0 1 0-10.378667l182.037333-330.666667a10.517333 10.517333 0 0 1 9.205333-5.472h361.514667a10.517333 10.517333 0 0 1 9.205333 5.472l182.037334 330.666667zM513.738667 213.333333c-94.261333 0-170.666667 76.405333-170.666667 170.666667s76.405333 170.666667 170.666667 170.666667c94.250667 0 170.666667-76.405333 170.666666-170.666667s-76.416-170.666667-170.666666-170.666667z m0 64c58.912 0 106.666667 47.754667 106.666666 106.666667s-47.754667 106.666667-106.666666 106.666667-106.666667-47.754667-106.666667-106.666667 47.754667-106.666667 106.666667-106.666667z"  horiz-adv-x="1024" />

    
    <glyph glyph-name="shouye" unicode="&#59577;" d="M155.584 553.44l312.874667 224.565333a74.666667 74.666667 0 0 0 87.082666 0l312.874667-224.565333A117.333333 117.333333 0 0 0 917.333333 458.133333V96c0-64.8-52.533333-117.333333-117.333333-117.333333H224c-64.8 0-117.333333 52.533333-117.333333 117.333333V458.122667a117.333333 117.333333 0 0 0 48.917333 95.317333z m37.322667-51.989333A53.333333 53.333333 0 0 1 170.666667 458.122667V96a53.333333 53.333333 0 0 1 53.333333-53.333333h576a53.333333 53.333333 0 0 1 53.333333 53.333333V458.122667a53.333333 53.333333 0 0 1-22.24 43.328L518.218667 726.016a10.666667 10.666667 0 0 1-12.437334 0L192.906667 501.44z"  horiz-adv-x="1024" />

    
    <glyph glyph-name="wodeguanzhu" unicode="&#59580;" d="M512 810.666667c129.6 0 234.666667-105.066667 234.666667-234.666667 0-84.256-44.394667-158.133333-111.072-199.52a425.28 425.28 0 0 0 152.853333-83.466667 32 32 0 1 0-41.493333-48.736A361.045333 361.045333 0 0 1 512 330.666667c-188.672 0-345.429333-144.672-361.344-331.413334a32 32 0 0 0-63.765333 5.429334c15.114667 177.322667 138.048 322.346667 301.546666 371.786666C321.76 417.834667 277.333333 491.733333 277.333333 576c0 129.6 105.066667 234.666667 234.666667 234.666667z m415.946667-627.381334l1.066666-1.013333a29.824 29.824 0 0 0 0-43.413333l-162.261333-152.96a31.925333 31.925333 0 0 0-22.762667-8.704 31.925333 31.925333 0 0 0-22.773333 8.704l-93.184 87.84a29.824 29.824 0 0 0 0 43.413333l1.077333 1.013333a32 32 0 0 0 43.904 0l70.976-66.901333 140.053334 132.021333a32 32 0 0 0 43.904 0zM512 746.666667c-94.261333 0-170.666667-76.405333-170.666667-170.666667s76.405333-170.666667 170.666667-170.666667 170.666667 76.405333 170.666667 170.666667-76.405333 170.666667-170.666667 170.666667z"  horiz-adv-x="1024" />

    


  </font>
</defs>
</svg>
